<?xml version="1.0" standalone="no"?>
<!DOCTYPE svg PUBLIC "-//W3C//DTD SVG 20010904//EN"
 "http://www.w3.org/TR/2001/REC-SVG-20010904/DTD/svg10.dtd">
<svg version="1.0" xmlns="http://www.w3.org/2000/svg"
 width="859.000000pt" height="859.000000pt" viewBox="0 0 859.000000 859.000000"
 preserveAspectRatio="xMidYMid meet">
<metadata>
Created by potrace 1.14, written by Peter Selinger 2001-2017
</metadata>
<g transform="translate(0.000000,859.000000) scale(0.100000,-0.100000)"
fill="#000000" stroke="none">
<path d="M1724 7111 c-2 -2 -4 -71 -4 -152 l0 -148 38 -6 c183 -30 404 -164
515 -314 51 -70 95 -159 152 -314 26 -67 50 -133 56 -146 10 -25 242 -643 263
-701 32 -87 189 -508 201 -535 7 -16 20 -52 30 -80 9 -27 21 -59 26 -70 8 -19
222 -592 465 -1250 64 -170 122 -326 129 -345 8 -19 55 -145 105 -280 50 -135
97 -261 105 -280 7 -19 25 -69 40 -110 15 -41 31 -84 36 -95 4 -11 45 -119 89
-240 45 -121 109 -293 142 -382 l61 -163 162 0 163 0 12 33 c7 17 16 41 21 52
4 11 38 97 74 190 36 94 92 238 125 320 32 83 83 213 113 290 30 77 85 215
121 307 36 92 66 170 66 173 0 3 8 24 19 48 10 23 33 80 51 127 18 47 39 99
46 115 7 17 42 104 78 195 215 552 859 2161 907 2267 10 23 19 45 19 48 0 3
50 126 112 273 207 497 288 629 449 737 76 51 170 92 282 121 l67 18 0 147 c0
144 0 147 -22 150 -19 3 -1837 3 -1873 0 -7 -1 -11 -50 -11 -136 0 -114 2
-135 15 -139 18 -5 77 -13 166 -21 260 -25 506 -109 592 -202 51 -55 58 -108
38 -283 -15 -135 -81 -347 -231 -745 -89 -238 -101 -269 -109 -290 -5 -11 -59
-150 -121 -310 -165 -427 -243 -626 -259 -662 -8 -17 -15 -34 -15 -37 0 -6
-418 -1059 -445 -1121 -16 -38 -70 -168 -130 -318 -27 -65 -51 -114 -55 -110
-4 4 -58 143 -119 308 -61 165 -116 309 -121 320 -6 11 -14 34 -19 50 -5 17
-260 698 -566 1515 -307 817 -569 1523 -582 1570 -12 47 -23 102 -23 122 0 44
35 90 90 118 42 21 180 54 275 65 32 4 67 8 75 10 27 5 203 18 228 17 12 -1
23 2 23 6 7 39 2 265 -6 270 -11 7 -2124 9 -2131 3z"/>
</g>
</svg>
